<svg width="73" height="73" viewBox="0 0 73 73" fill="none" xmlns="http://www.w3.org/2000/svg">
<g id="01 align center">
<path id="Vector" d="M72.9995 73H36.5543C29.4337 72.9966 22.4696 70.9105 16.5198 66.9987C10.57 63.0869 5.89427 57.5202 3.06861 50.9843C0.242953 44.4484 -0.609257 37.2287 0.616952 30.2145C1.84316 23.2003 5.09423 16.6979 9.96973 11.5083C14.8452 6.31865 21.1322 2.66843 28.0563 1.00721C34.9804 -0.654005 42.2392 -0.253662 48.9386 2.15893C55.638 4.57152 61.4854 8.89099 65.7606 14.5853C70.0359 20.2796 72.5521 27.1001 72.9995 34.2066V34.3982V73ZM36.5543 6.08333C28.4873 6.08333 20.7507 9.28794 15.0465 14.9922C9.34224 20.6964 6.13763 28.433 6.13763 36.5C6.13763 44.567 9.34224 52.3036 15.0465 58.0078C20.7507 63.7121 28.4873 66.9167 36.5543 66.9167H66.9162V34.4955C66.3946 26.795 62.9703 19.5793 57.3348 14.3057C51.6993 9.03202 44.2725 6.09343 36.5543 6.08333Z" fill="#E6EFEB"/>
<path id="Vector_2" d="M39.5425 21.2915H21.2925V27.3748H39.5425V21.2915Z" fill="#E6EFEB"/>
<path id="Vector_3" d="M51.7092 33.4585H21.2925V39.5419H51.7092V33.4585Z" fill="#E6EFEB"/>
<path id="Vector_4" d="M51.7092 45.6255H21.2925V51.7089H51.7092V45.6255Z" fill="#E6EFEB"/>
</g>
</svg>
