<svg width="43" height="39" viewBox="0 0 43 39" fill="none" xmlns="http://www.w3.org/2000/svg">
<g id="Group 8">
<path id="Vector" d="M33.6498 19.6292H4.05608V5.70272C4.05608 4.7418 3.2762 3.96191 2.31527 3.96191C1.35434 3.96191 0.574463 4.7418 0.574463 5.70272V37.0373C0.574463 37.9982 1.35434 38.7781 2.31527 38.7781C3.2762 38.7781 4.05608 37.9982 4.05608 37.0373V33.5556H38.8722V37.0373C38.8722 37.9982 39.6504 38.7781 40.613 38.7781C41.5757 38.7781 42.3539 37.9982 42.3539 37.0373V28.3332C42.3539 23.5338 38.4492 19.6292 33.6498 19.6292Z" fill="#FFE07B"/>
<g id="Group 116">
<path id="Vector_2" d="M18.0959 20.6586C19.38 21.5167 20.8896 21.9748 22.434 21.9751L18.0959 20.6586ZM18.0959 20.6586C16.8114 19.8003 15.8102 18.5804 15.2189 17.153M18.0959 20.6586L15.2189 17.153M15.2189 17.153C14.6277 15.7257 14.473 14.1551 14.7744 12.6399M15.2189 17.153L14.7744 12.6399M14.7744 12.6399C15.0758 11.1246 15.8198 9.7328 16.9122 8.64037M14.7744 12.6399L16.9122 8.64037M16.9122 8.64037C18.0047 7.54794 19.3965 6.80399 20.9117 6.50259M16.9122 8.64037L20.9117 6.50259M20.9117 6.50259C22.427 6.20118 23.9976 6.35587 25.4249 6.94709M20.9117 6.50259L25.4249 6.94709M25.4249 6.94709C26.8522 7.53831 28.0722 8.53951 28.9305 9.82407M25.4249 6.94709L28.9305 9.82407M28.9305 9.82407C29.7885 11.1082 30.2466 12.6178 30.2469 14.1621L28.9305 9.82407ZM23.9356 1.58062V1.49023H22.4356C19.9291 1.49023 17.4788 2.23353 15.3946 3.62611C13.3104 5.0187 11.686 6.99804 10.7268 9.31383C9.76758 11.6296 9.5166 14.1778 10.0056 16.6363C10.4946 19.0947 11.7017 21.3529 13.4741 23.1253C15.2465 24.8978 17.5047 26.1048 19.9632 26.5938C22.4216 27.0828 24.9698 26.8319 27.2856 25.8726C29.6014 24.9134 31.5807 23.289 32.9733 21.2048C34.3659 19.1207 35.1092 16.6704 35.1092 14.1638V14.1622C35.1056 10.8025 33.7693 7.58143 31.3937 5.20577C29.3739 3.18604 26.7432 1.9176 23.9356 1.58062ZM30.2469 14.1623C30.2446 16.2337 29.4208 18.2195 27.9561 19.6842C26.4914 21.1489 24.5055 21.9728 22.4341 21.9751L30.2469 14.1623Z" fill="#FFE07B" stroke="#253934" stroke-width="3"/>
<path id="Vector_3" d="M22.4354 8.5769C22.1884 8.5769 21.9516 8.67501 21.777 8.84963C21.6024 9.02425 21.5043 9.26108 21.5043 9.50803V13.5352L18.3654 15.5017C18.1555 15.6328 18.0063 15.842 17.9506 16.0831C17.8949 16.3243 17.9373 16.5777 18.0684 16.7876C18.1995 16.9975 18.4087 17.1467 18.6498 17.2024C18.891 17.2581 19.1444 17.2158 19.3543 17.0846L22.9298 14.8499C23.0649 14.7653 23.176 14.6474 23.2525 14.5075C23.3289 14.3676 23.3682 14.2104 23.3665 14.051V9.50803C23.3665 9.26108 23.2684 9.02425 23.0938 8.84963C22.9192 8.67501 22.6823 8.5769 22.4354 8.5769Z" fill="#FFE07B"/>
</g>
</g>
</svg>
